<?xml version="1.0" encoding="utf-8"?>
<!-- Generator: Adobe Illustrator 24.1.0, SVG Export Plug-In . SVG Version: 6.00 Build 0)  -->
<svg version="1.1" xmlns="http://www.w3.org/2000/svg" xmlns:xlink="http://www.w3.org/1999/xlink" x="0px" y="0px"
	 viewBox="0 0 24 24" style="enable-background:new 0 0 24 24;" xml:space="preserve">
<style type="text/css">
	.st0{fill:#FFFFFF;}
	.st1{fill:none;}
</style>
<g id="Online_Banking">
</g>
<g id="Online_Shopping_Cart">
</g>
<g id="Online_Rewards">
</g>
<g id="Online_Shopping">
</g>
<g id="_x32_4_Hours">
</g>
<g id="Online_Banking_02">
</g>
<g id="Mobile_ATM">
</g>
<g id="POS">
</g>
<g id="World_Economy_02">
</g>
<g id="Credit_Card_03">
</g>
<g id="Wallet_02">
</g>
<g id="Dollar_Euro_Exchange">
</g>
<g id="ATM_02">
</g>
<g id="Transaction">
</g>
<g id="Exchange_Dollar">
</g>
<g id="Cash">
</g>
<g id="Coins_04">
</g>
<g id="Money_02">
</g>
<g id="Contract">
	<g>
		<path class="st0" d="M21.16,2.22H7.79c-0.56,0-1.01,0.45-1.01,1.01v1.3H6.31c-0.52,0-0.95,0.43-0.95,0.95v15.11
			c0,0.65,0.53,1.19,1.19,1.19h12.53c0.58,0,1.05-0.47,1.05-1.05v-0.89h1.06c0.59,0,1.07-0.48,1.07-1.07V3.31
			C22.25,2.71,21.76,2.22,21.16,2.22z M19.07,21.22H6.54c-0.34,0-0.62-0.28-0.62-0.62V5.48c0-0.21,0.17-0.39,0.39-0.39h10.05v2.45
			c0,0.66,0.48,1.19,1.08,1.19h2.12v11.99C19.56,21,19.34,21.22,19.07,21.22z M16.93,5.17l2.41,3.01h-1.89
			c-0.28,0-0.51-0.28-0.51-0.63V5.17z M21.69,18.78c0,0.28-0.23,0.5-0.5,0.5h-1.06V8.36c0-0.06-0.02-0.13-0.06-0.18l-2.84-3.55
			C17.17,4.57,17.08,4.53,17,4.53H7.34v-1.3c0-0.25,0.2-0.45,0.45-0.45h13.38c0.29,0,0.53,0.24,0.53,0.53V18.78z"/>
		<path class="st0" d="M7.77,7.93h4.97c0.16,0,0.28-0.13,0.28-0.28s-0.13-0.28-0.28-0.28H7.77c-0.16,0-0.28,0.13-0.28,0.28
			S7.61,7.93,7.77,7.93z"/>
		<path class="st0" d="M7.77,11.48h9.94c0.16,0,0.28-0.13,0.28-0.28s-0.13-0.28-0.28-0.28H7.77c-0.16,0-0.28,0.13-0.28,0.28
			S7.61,11.48,7.77,11.48z"/>
		<path class="st0" d="M7.77,13.43h9.94c0.16,0,0.28-0.13,0.28-0.28s-0.13-0.28-0.28-0.28H7.77c-0.16,0-0.28,0.13-0.28,0.28
			S7.61,13.43,7.77,13.43z"/>
		<path class="st0" d="M17.85,15.18H7.91c-0.16,0-0.28,0.13-0.28,0.28s0.13,0.28,0.28,0.28h9.94c0.16,0,0.28-0.13,0.28-0.28
			S18.01,15.18,17.85,15.18z"/>
		<path class="st0" d="M12.03,18.73H7.77c-0.16,0-0.28,0.13-0.28,0.28s0.13,0.28,0.28,0.28h4.26c0.16,0,0.28-0.13,0.28-0.28
			S12.18,18.73,12.03,18.73z"/>
		<path class="st0" d="M3.33,5.59H2.98c-0.68,0-1.23,0.55-1.23,1.23v1.37v9.77c0,0.05,0.01,0.09,0.03,0.13l0.73,1.36
			c0.07,0.14,0.18,0.24,0.31,0.31v0.62c0,0.01,0,0.01,0,0.02c-0.09,0.08-0.14,0.19-0.14,0.31c0,0.23,0.18,0.41,0.41,0.41
			c0.23,0,0.41-0.18,0.41-0.41c0-0.11-0.05-0.22-0.12-0.29c0-0.01,0-0.03,0-0.04v-0.62c0.13-0.06,0.23-0.15,0.31-0.28l0.82-1.38
			c0.03-0.04,0.04-0.09,0.04-0.14V8.19V6.82C4.56,6.15,4.01,5.59,3.33,5.59z M2.31,6.82c0-0.37,0.3-0.67,0.67-0.67h0.35
			C3.7,6.16,4,6.46,4,6.82v1.09H2.31V6.82z M4,17.89L3.22,19.2c-0.03,0.05-0.06,0.07-0.1,0.07c-0.04,0-0.08-0.03-0.1-0.08l-0.7-1.3
			V8.47H4V17.89z"/>
	</g>
	<rect y="0" class="st1" width="24" height="24"/>
</g>
<g id="Change">
</g>
<g id="Accounting">
</g>
<g id="Cash_Flow_02">
</g>
<g id="Shield">
</g>
<g id="Money_Growth">
</g>
<g id="Cash_Register">
</g>
<g id="Mobile_Banking_03">
</g>
<g id="Currency_Exchange">
</g>
<g id="Loan">
</g>
<g id="Money_01">
</g>
<g id="Coins_03_1_">
</g>
<g id="Cash_Flow_01">
</g>
<g id="Wallet_01">
</g>
<g id="Coins_02">
</g>
<g id="Coins_01">
</g>
<g id="Mobile_Banking_02_1_">
</g>
<g id="Bank_03">
</g>
<g id="ATM_01">
</g>
<g id="Bank_02">
</g>
<g id="Mobile_Banking_01">
</g>
<g id="Money_Bag">
</g>
<g id="Gold_Lingots">
</g>
<g id="Safe_Box">
</g>
<g id="Credit_Card_02">
</g>
<g id="Savings">
</g>
<g id="Vault">
</g>
<g id="Deposit">
</g>
<g id="Credit_Card_01">
</g>
<g id="Paycheque">
</g>
<g id="World_Economy_01">
</g>
<g id="Bank_01">
</g>
</svg>
